<?xml version="1.0" encoding="UTF-8" standalone="no"?>
<!DOCTYPE svg PUBLIC "-//W3C//DTD SVG 1.1//EN" "http://www.w3.org/Graphics/SVG/1.1/DTD/svg11.dtd">
<svg version="1.1" xmlns="http://www.w3.org/2000/svg" xmlns:xlink="http://www.w3.org/1999/xlink" preserveAspectRatio="xMidYMid meet" viewBox="165.04504504504456 197.4774774774774 318.0180180180179 221.62162162162156" width="318.02" height="221.62"><defs><path d="M329.01 249.69C329.01 220.85 363.29 197.48 405.59 197.48C447.88 197.48 482.16 220.85 482.16 249.69C482.16 278.52 447.88 301.9 405.59 301.9C395.32 301.9 385.51 300.52 376.56 298.02C374.67 298.94 365.23 303.57 348.22 311.89L352.63 287.4C336.88 272.14 329.01 259.57 329.01 249.69Z" id="b1U8D1YYd"></path><path d="M165.05 419.1L165.05 306.49L329.91 306.49L329.91 419.1L165.05 419.1ZM246.43 381.56L180.5 335.34L180.5 404.08L314.45 404.08L314.45 333.58L246.64 381.12L246.43 381.56ZM246.22 359.74L300.77 321.5L191.67 321.5L246.22 359.74Z" id="cuNEaK8nV"></path><path d="M174.14 409.28L174.14 296.67L339.01 296.67L339.01 409.28L174.14 409.28ZM255.53 371.74L189.6 325.52L189.6 394.26L323.55 394.26L323.55 323.76L255.74 371.3L255.53 371.74ZM255.32 349.92L309.86 311.68L200.77 311.68L255.32 349.92Z" id="a4enrCV2ao"></path><path d="M329.91 247.22C329.91 219.75 364.19 197.48 406.49 197.48C448.78 197.48 483.06 219.74 483.06 247.22C483.06 274.69 448.78 296.96 406.49 296.96C396.22 296.96 386.42 295.65 377.46 293.27C375.57 294.15 366.13 298.56 349.12 306.49L353.53 283.15C337.78 268.61 329.91 256.64 329.91 247.22Z" id="a6Az2CSWU6"></path></defs><g><g><use xlink:href="#b1U8D1YYd" opacity="1" fill="#f9f9f9" fill-opacity="0.82"></use><g><use xlink:href="#b1U8D1YYd" opacity="1" fill-opacity="0" stroke="#3d2fcf" stroke-width="1" stroke-opacity="0"></use></g></g><g><use xlink:href="#cuNEaK8nV" opacity="1" fill="#2f2f2f" fill-opacity="0.29"></use></g><g><use xlink:href="#a4enrCV2ao" opacity="1" fill="#ffffff" fill-opacity="1"></use></g><g><use xlink:href="#a6Az2CSWU6" opacity="1" fill="#f9f9f9" fill-opacity="1"></use><g><use xlink:href="#a6Az2CSWU6" opacity="1" fill-opacity="0" stroke="#3c2fcf" stroke-width="1" stroke-opacity="0"></use></g></g></g></svg>